<svg width="0" height="0" class="hidden">
<symbol viewBox="0 -77 512.002 512" xmlns="http://www.w3.org/2000/svg" id="youtube">
    <path d="M501.453 56.094c-5.902-21.934-23.195-39.223-45.125-45.13C416.262 0 255.996 0 255.996 0S95.734 0 55.668 10.547C34.16 16.449 16.445 34.164 10.543 56.094 0 96.156 0 179.242 0 179.242s0 83.504 10.543 123.149c5.906 21.93 23.195 39.222 45.129 45.129C96.156 358.484 256 358.484 256 358.484s160.262 0 200.328-10.546c21.934-5.903 39.223-23.196 45.129-45.125C512 262.745 512 179.663 512 179.663s.422-83.508-10.547-123.57zm0 0"
      fill="red"></path>
    <path d="M204.969 256l133.27-76.758-133.27-76.758zm0 0" fill="#fff"></path>
  </symbol>
  <symbol xmlns="http://www.w3.org/2000/svg" viewBox="0 0 512 512" id="ru">
    <path d="M473.655 88.276H38.345C17.167 88.276 0 105.443 0 126.621v73.471h512v-73.471c0-21.178-17.167-38.345-38.345-38.345z" fill="#f5f5f5"></path>
    <path d="M0 385.379c0 21.177 17.167 38.345 38.345 38.345h435.31c21.177 0 38.345-17.167 38.345-38.345v-73.471H0v73.471z" fill="#ff4b55"></path>
    <path fill="#41479b" d="M0 200.09h512V311.9H0z"></path>
  </symbol>
  <symbol xmlns="http://www.w3.org/2000/svg" viewBox="0 0 512 512" id="en">
    <path d="M473.655 88.276H38.345C17.167 88.276 0 105.443 0 126.621V385.38c0 21.177 17.167 38.345 38.345 38.345h435.31c21.177 0 38.345-17.167 38.345-38.345V126.621c0-21.178-17.167-38.345-38.345-38.345z" fill="#41479b"></path>
    <path d="M511.469 120.282c-3.022-18.159-18.797-32.007-37.814-32.007h-9.977l-163.54 107.147V88.276h-88.276v107.147L48.322 88.276h-9.977c-19.017 0-34.792 13.847-37.814 32.007l139.778 91.58H0v88.276h140.309L.531 391.717c3.022 18.159 18.797 32.007 37.814 32.007h9.977l163.54-107.147v107.147h88.276V316.577l163.54 107.147h9.977c19.017 0 34.792-13.847 37.814-32.007l-139.778-91.58H512v-88.276H371.691l139.778-91.579z"
      fill="#f5f5f5"></path>
    <g fill="#ff4b55">
      <path d="M282.483 88.276h-52.966v141.241H0v52.966h229.517v141.241h52.966V282.483H512v-52.966H282.483z"></path>
      <path d="M24.793 421.252l186.583-121.114h-32.428L9.224 410.31a38.393 38.393 0 0 0 15.569 10.942zm321.595-121.114H313.96l180.716 117.305a38.515 38.515 0 0 0 12.287-13.075l-160.575-104.23zM4.049 109.475l157.73 102.387h32.428L15.475 95.842a38.499 38.499 0 0 0-11.426 13.633zm328.517 102.387l170.035-110.375a38.4 38.4 0 0 0-15.699-10.86L300.138 211.862h32.428z"></path>
    </g>
  </symbol>
 
</svg>

